<svg width="256" height="256" viewBox="0 0 256 256" fill="none" xmlns="http://www.w3.org/2000/svg">
<rect width="256" height="256" rx="12" fill="#131313"/>
<path d="M168.926 55.2148C173.596 53.1372 179.201 66.7464 179.928 69.2402C182.419 80.9798 174.323 100.719 176.813 102.59C178.889 104.252 188.231 94.6941 194.873 92.6162C199.024 99.0573 198.609 106.641 193.316 113.498C185.117 124.199 176.502 133.03 176.087 148.821C175.672 160.041 185.116 180.923 186.569 187.157L178.89 183.21C179.512 192.352 186.569 210.012 186.569 211.053H184.494L178.06 206.273C179.305 219.364 183.871 234.636 182.418 247.415L174.427 238.584C174.674 245.378 174.535 251.028 174.147 256H170.134C170.531 251.087 170.676 245.502 170.43 238.729L170.03 227.765L178.486 237.109C178.245 234.053 177.819 230.868 177.3 227.586C176.226 220.797 174.715 213.356 174.077 206.652L173.226 197.701L179.464 202.334C179.363 202.027 179.26 201.716 179.158 201.402C177.332 195.765 175.248 188.615 174.898 183.481L174.417 176.413L179.642 179.099C178.76 176.66 177.78 173.939 176.837 171.136C174.375 163.82 171.851 155.123 172.09 148.674C172.562 131.319 182.265 121.344 190.141 111.065L190.146 111.06L190.149 111.054C193.627 106.549 194.419 101.992 193.012 97.8613C192.586 98.1056 192.14 98.3746 191.675 98.668C189.95 99.7561 188.2 101.017 186.452 102.263C184.793 103.445 183.018 104.703 181.495 105.535C180.747 105.944 179.804 106.396 178.801 106.624C177.873 106.835 175.985 107.051 174.313 105.712V105.71C173.326 104.927 172.866 103.928 172.647 103.229C172.42 102.499 172.353 101.786 172.336 101.22C172.303 100.089 172.456 98.8154 172.65 97.6055C173.041 95.181 173.786 91.9684 174.457 88.79C175.873 82.0818 177.026 75.1368 176.048 70.2412C175.706 69.1634 174.306 65.6172 172.477 62.5732C171.514 60.9716 170.616 59.8216 169.91 59.2168C169.893 59.2024 169.876 59.1899 169.86 59.1768L169.775 59.2148H169.119C169.045 59.2953 168.932 59.4315 168.777 59.6523C168.448 60.1227 168.136 60.6657 167.638 61.5068C167.188 62.2656 166.621 63.1977 165.921 64.1279C159.297 73.1408 154.548 79.694 147.911 87.6035L147.91 87.6025C144.458 91.7399 139.1 93.5452 134.729 94.9453C129.926 96.4836 125.779 97.6733 122.464 100.031L122.453 100.038C119.515 102.114 115.697 106.557 111.782 111.941C107.959 117.2 104.341 122.936 101.777 127.196L101.745 127.249L101.712 127.301C101.238 128.036 100.62 128.584 100.196 128.928C99.7189 129.315 99.1777 129.688 98.6279 130.038C97.5265 130.739 96.1476 131.502 94.6406 132.287C91.6224 133.86 87.7515 135.699 83.876 137.559C79.9564 139.439 76.0012 141.354 72.667 143.139C71.0988 143.978 69.7597 144.745 68.666 145.422C69.8111 146.21 71.363 147.072 73.2422 147.952C77.795 150.084 83.5444 152.006 88.0283 153.153L93.5117 154.557L90.3584 159.257C89.2747 160.872 88.3608 162.717 86.9658 165.275C85.6304 167.724 83.9995 170.532 81.7041 173.501C78.1091 178.152 73.031 183.011 65.1377 187.734L73.4404 189.743L70.6445 194.408C69.8802 195.683 68.7463 196.727 67.6758 197.554C66.5563 198.418 65.2333 199.251 63.8252 200.043C61.0089 201.628 57.5458 203.22 54.0078 204.731C50.4555 206.249 46.7174 207.73 43.3389 209.072C43.2931 209.09 43.2467 209.108 43.2012 209.126L51.7188 213.188L43.9814 216.762C37.594 219.713 31.3821 223.928 24.7197 228.505C18.156 233.014 11.1754 237.859 3.61719 241.642L3.60938 241.646L3.60254 241.648C2.40903 242.24 1.20707 242.81 0 243.363V238.95C0.284228 238.815 0.568248 238.679 0.851562 238.542L1.82715 238.064C16.3572 230.792 28.8115 219.364 42.3037 213.131L40.125 212.092L33.0674 208.975C42.3046 204.819 64.0984 197.547 67.2129 192.353L54.7588 189.339L55.7969 188.196C79.6677 176.768 82.1591 164.302 87.0371 157.029C77.6962 154.64 63.0615 149.029 63.0615 144.562C68.9778 138.951 96.2739 128.354 98.3496 125.134C103.458 116.646 112.79 102.218 119.812 97.0127L120.146 96.7715C128.033 91.1616 139.657 91.2654 144.847 85.0322C151.385 77.2404 156.056 70.7983 162.698 61.7598C164.981 58.747 165.812 55.2149 168.926 55.2148Z" fill="#8B8B8B"/>
</svg>
